:version 1.10
:name ASF
:units
  mass 1
  length 1
  angle deg
:documentation
  ASF file generated by Kaydara
:root
  axis xyz
  order  tx ty tz rx ry rz
  position 0 0 0
  orientation 0 0 0
:bonedata
  begin
    id 1
    name RightUpLegDummy
    direction -1 2.30186e-007 8.31532e-007
    length 4.04083
    axis 0 0 0 xyz
  end
  begin
    id 2
    name RightUpLeg
    direction -0.000919234 -0.999985 0.00544864
    length 17.4221
    axis -3.80308 -0.00076134 -0.0523649 xyz
    dof rx ry rz
  end
  begin
    id 3
    name RightLeg
    direction -0.000919271 -0.999984 -0.00555045
    length 17.1239
    axis 4.00314 0.0181274 -0.183583 xyz
    dof rx ry rz
  end
  begin
    id 4
    name RightFoot
    direction -2.57843e-005 -4.04509e-007 1
    length 6.72091
    axis 8.18909e-005 -0.122003 -0.403008 xyz
    dof rx ry rz
  end
  begin
    id 5
    name RightToes
    direction 0.00116825 -0.014069 0.9999
    length 3.85082
    axis 0.000514414 0.540638 -0.356797 xyz
    dof rx ry rz
  end
  begin
    id 6
    name SpineDummy
    direction 0.0168869 0.966876 -0.254689
    length 6.99894
    axis 0 0 0 xyz
  end
  begin
    id 7
    name Spine
    direction -0.0132008 0.999903 0.00446247
    length 11.1999
    axis -0.00148109 0.00725429 0.756411 xyz
    dof rx ry rz
  end
  begin
    id 8
    name Spine1
    direction 0 0 0
    length 0
    axis -0.000934958 0.0245693 1.46543 xyz
    dof rx ry rz
  end
  begin
    id 9
    name HEadDummy
    direction -0.0255732 0.999672 0.00128215
    length 3.43865
    axis -0.000934958 0.0245693 1.46543 xyz
  end
  begin
    id 10
    name HEad
    direction -0.0472656 0.980052 0.19304
    length 5.12695
    axis -0.000934954 0.0245693 1.46543 xyz
    dof rx ry rz
  end
  begin
    id 11
    name LeftShoulder1Dummy
    direction 0.953098 0.301717 -0.023914
    length 3.68488
    axis -0.000934958 0.0245693 1.46543 xyz
  end
  begin
    id 12
    name LeftShoulder1
    direction 0.962466 0.271167 0.0112566
    length 3.13809
    axis -0.000934958 0.0245693 1.46543 xyz
    dof rx ry rz
  end
  begin
    id 13
    name LeftArm
    direction 0.999943 0.00455037 -0.00961766
    length 11.3419
    axis -23.1648 0.685459 1.22814 xyz
    dof rx ry rz
  end
  begin
    id 14
    name LeftForeArm
    direction 0.999332 0.0131969 0.0340885
    length 8.70632
    axis -9.90633 0.618216 0.0826942 xyz
    dof rx ry rz
  end
  begin
    id 15
    name LeftHand
    direction 0.994373 -0.0366703 0.0993905
    length 5.32135
    axis 0.00675269 0.680415 0.445699 xyz
    dof rx ry rz
  end
  begin
    id 16
    name RightShoulderDummy
    direction -0.967298 0.252589 -0.0230903
    length 3.68488
    axis -0.000934958 0.0245693 1.46543 xyz
  end
  begin
    id 17
    name RightShoulder
    direction -0.975062 0.221602 0.0120823
    length 3.13809
    axis 0.216257 0.0246515 1.45863 xyz
    dof rx ry rz
  end
  begin
    id 18
    name RightArm
    direction -0.99886 -0.00851186 -0.0469687
    length 10.3947
    axis -23.196 0.23503 -0.532632 xyz
    dof rx ry rz
  end
  begin
    id 19
    name RightForeArm
    direction -0.99909 0.00114866 0.0426317
    length 8.68355
    axis -9.91764 -0.134943 0.610517 xyz
    dof rx ry rz
  end
  begin
    id 20
    name RightHand
    direction -0.992888 -0.0489538 0.10852
    length 5.28593
    axis -0.00275396 -0.197403 0.246414 xyz
    dof rx ry rz
  end
  begin
    id 21
    name LeftUpLegDummy
    direction 1 -2.30186e-007 -8.31532e-007
    length 4.04083
    axis 0 0 0 xyz
  end
  begin
    id 22
    name LeftUpLeg
    direction -0.000920097 -1 2.79241e-006
    length 17.4221
    axis -3.48782 0.00143434 -0.0532288 xyz
    dof rx ry rz
  end
  begin
    id 23
    name LeftLeg
    direction -0.000920097 -1 2.7912e-006
    length 17.1239
    axis 3.68162 -0.00806512 -0.0529896 xyz
    dof rx ry rz
  end
  begin
    id 24
    name LeftFoot
    direction -2.57845e-005 -3.987e-007 1
    length 6.72091
    axis 3.02372e-005 -0.00147829 -0.214229 xyz
    dof rx ry rz
  end
  begin
    id 25
    name LeftToes
    direction 0.00813577 -0.00488255 0.999955
    length 3.85048
    axis 3.89895e-005 -0.0014783 -0.214229 xyz
    dof rx ry rz
  end
:hierarchy
  begin
    root RightUpLegDummy SpineDummy LeftUpLegDummy
    RightUpLegDummy RightUpLeg
    RightUpLeg RightLeg
    RightLeg RightFoot
    RightFoot RightToes
    SpineDummy Spine
    Spine Spine1
    Spine1 HEadDummy LeftShoulder1Dummy RightShoulderDummy
    HEadDummy HEad
    LeftShoulder1Dummy LeftShoulder1
    LeftShoulder1 LeftArm
    LeftArm LeftForeArm
    LeftForeArm LeftHand
    RightShoulderDummy RightShoulder
    RightShoulder RightArm
    RightArm RightForeArm
    RightForeArm RightHand
    LeftUpLegDummy LeftUpLeg
    LeftUpLeg LeftLeg
    LeftLeg LeftFoot
    LeftFoot LeftToes
  end

:SAMPLES-PER-SECOND 30
:FULLY-SPECIFIED
:DEGREES
22
root  31.5423 34.6623 -36.1596 9.6541 -45.3632 0.394113
RightUpLeg  -6.72586 -16.963 2.24401
RightLeg  4.02423 -1.95398 -0.0140891
RightFoot  2.00591 0.0124577 0.0762946
RightToes  -20.0072 -0.0730792 -0.172924
Spine  -2.87328 -0.109915 0.424301
Spine1  -5.81624 -0.150695 1.45557
HEad  -56.7004 -5.70898 6.37091
LeftShoulder1  -1.94126e-019 -3.10601e-018 -2.51263e-017
LeftArm  -12.0972 26.6147 -82.4448
LeftForeArm  34.5483 -16.8198 -2.71301
LeftHand  -0.457355 -1.59565 7.31884
RightShoulder  -4.96962e-017 0 -2.36833e-017
RightArm  -33.1449 -25.6707 76.3397
RightForeArm  54.6929 13.9545 1.28681
RightHand  -0.316777 -2.02937 -10.4686
LeftUpLeg  -7.05327 5.68354 -0.745668
LeftLeg  4.84595 14.0754 0.282488
LeftFoot  3.05795 -0.0306555 0.903761
LeftToes  -16.2859 1.34695e-006 1.12385e-007
23
root  31.5591 34.6639 -36.1659 9.62552 -45.3287 0.395895
RightUpLeg  -6.71234 -16.9492 2.23151
RightLeg  4.0089 -2.00011 -0.0105163
RightFoot  2.02112 0.0124843 0.0759148
RightToes  -19.9954 -0.0730792 -0.172924
Spine  -2.87174 -0.104564 0.413525
Spine1  -5.80271 -0.140425 1.43461
HEad  -56.7755 -5.6337 6.34111
LeftShoulder1  -1.94126e-019 -3.10601e-018 -2.51263e-017
LeftArm  -12.0575 26.6207 -82.4416
LeftForeArm  34.5355 -16.7552 -2.70431
LeftHand  -0.457784 -1.59025 7.34222
RightShoulder  -4.96962e-017 0 -2.36833e-017
RightArm  -33.1158 -25.6649 76.3246
RightForeArm  54.6594 13.9586 1.28575
RightHand  -0.315291 -2.05487 -10.4809
LeftUpLeg  -7.05186 5.65797 -0.75537
LeftLeg  4.82778 14.0605 0.284091
LeftFoot  3.09802 -0.0312483 0.912976
LeftToes  -16.3702 1.34695e-006 1.12385e-007
24
root  31.5735 34.6656 -36.1725 9.60352 -45.3036 0.396681
RightUpLeg  -6.7044 -16.9415 2.22293
RightLeg  3.99373 -2.02505 -0.0099422
RightFoot  2.04792 0.0125106 0.0755391
RightToes  -20.0256 -0.0730792 -0.172924
Spine  -2.87089 -0.0980831 0.400636
Spine1  -5.79884 -0.128091 1.40971
HEad  -56.8103 -5.57662 6.34464
LeftShoulder1  -1.94126e-019 -3.10601e-018 -2.51263e-017
LeftArm  -12.0518 26.627 -82.4387
LeftForeArm  34.5523 -16.6924 -2.69471
LeftHand  -0.459587 -1.59305 7.296
RightShoulder  -4.96962e-017 0 -2.36833e-017
RightArm  -33.0974 -25.664 76.3223
RightForeArm  54.6575 13.9468 1.28875
RightHand  -0.315657 -2.07524 -10.4335
LeftUpLeg  -7.04821 5.63401 -0.76395
LeftLeg  4.81011 14.0662 0.28267
LeftFoot  3.11386 -0.03153 0.917354
LeftToes  -16.4117 1.34695e-006 1.12385e-007
25
root  31.5868 34.6667 -36.1794 9.57896 -45.2921 0.396743
RightUpLeg  -6.70428 -16.9234 2.21173
RightLeg  3.98821 -2.04716 -0.00986283
RightFoot  2.06726 0.0125364 0.07517
RightToes  -20.0588 -0.0730792 -0.172924
Spine  -2.87035 -0.0938776 0.38769
Spine1  -5.79713 -0.120178 1.38456
HEad  -56.824 -5.5522 6.30962
LeftShoulder1  -1.94126e-019 -3.10601e-018 -2.51263e-017
LeftArm  -12.0055 26.6482 -82.4358
LeftForeArm  34.5732 -16.6448 -2.68658
LeftHand  -0.458874 -1.57416 7.35497
RightShoulder  -4.96962e-017 0 -2.36833e-017
RightArm  -33.0689 -25.6603 76.3274
RightForeArm  54.6847 13.9305 1.29296
RightHand  -0.313 -2.08056 -10.4798
LeftUpLeg  -7.04476 5.63701 -0.771873
LeftLeg  4.80108 14.0553 0.283295
LeftFoot  3.12768 -0.0316202 0.918756
LeftToes  -16.3903 1.34695e-006 1.12385e-007
26
root  31.5964 34.6675 -36.1866 9.56097 -45.305 0.396352
RightUpLeg  -6.70569 -16.989 2.21148
RightLeg  3.97997 -1.98134 -0.00923637
RightFoot  2.08368 0.0125616 0.07481
RightToes  -20.0433 -0.0730792 -0.172924
Spine  -2.87001 -0.0850826 0.376054
Spine1  -5.79694 -0.102918 1.36166
HEad  -56.8457 -5.53124 6.2898
LeftShoulder1  -1.94126e-019 -3.10601e-018 -2.51263e-017
LeftArm  -12.017 26.6609 -82.4326
LeftForeArm  34.5598 -16.6184 -2.68184
LeftHand  -0.461393 -1.6106 7.2746
RightShoulder  -4.96962e-017 0 -2.36833e-017
RightArm  -33.0268 -25.6558 76.3373
RightForeArm  54.6657 13.9203 1.29572
RightHand  -0.311993 -2.12374 -10.4748
LeftUpLeg  -7.04257 5.63442 -0.775106
LeftLeg  4.79127 14.066 0.280993
LeftFoot  3.12421 -0.0317034 0.920049
LeftToes  -16.3247 1.34695e-006 1.12385e-007
27
root  31.6027 34.668 -36.1924 9.55245 -45.3181 0.395782
RightUpLeg  -6.70785 -17.0068 2.21211
RightLeg  3.97742 -1.94459 -0.00896432
RightFoot  2.0952 0.012586 0.0744615
RightToes  -20.0296 -0.0730792 -0.172924
Spine  -2.87108 -0.0804647 0.368277
Spine1  -5.79912 -0.0937493 1.34618
HEad  -56.8812 -5.51169 6.26058
LeftShoulder1  -1.94126e-019 -3.10601e-018 -2.51263e-017
LeftArm  -12.0199 26.6671 -82.4292
LeftForeArm  34.5909 -16.5794 -2.67468
LeftHand  -0.460496 -1.6105 7.33726
RightShoulder  -4.96962e-017 0 -2.36833e-017
RightArm  -33.0248 -25.6533 76.3568
RightForeArm  54.6549 13.9229 1.29532
RightHand  -0.31088 -2.16444 -10.4733
LeftUpLeg  -7.04114 5.62999 -0.776758
LeftLeg  4.78935 14.0725 0.279318
LeftFoot  3.13808 -0.0319571 0.923992
LeftToes  -16.3934 1.34695e-006 1.12385e-007
